Coordinates
version=1
nRows=19
nColumns=24
inDegrees=yes

Units are S.I. units (second, meters, Newtons, ...)
Angles are in degrees.

endheader
time	pelvis_tilt	pelvis_list	pelvis_rotation	pelvis_tx	pelvis_ty	pelvis_tz	hip_flexion_r	hip_adduction_r	hip_rotation_r	knee_angle_r	ankle_angle_r	subtalar_angle_r	mtp_angle_r	hip_flexion_l	hip_adduction_l	hip_rotation_l	knee_angle_l	ankle_angle_l	subtalar_angle_l	mtp_angle_l	lumbar_extension	lumbar_bending	lumbar_rotation
      0.78150000	      7.18693303	     -4.27320125	      2.74771848	     -0.46812191	      1.01813793	      0.32053200	     -0.40202255	      9.52476322	     -2.83095470	    -11.42171036	      2.99291790	    -13.97657956	     -4.87121600	      9.85952393	     -4.74972568	      1.76878777	    -67.28141414	     -9.21099263	     -7.67306850	      4.12058796	     -8.45039177	      8.44759270	      2.27046436
      0.78566667	      7.20433217	     -4.15917961	      2.65891712	     -0.46314890	      1.01872058	      0.32091250	     -0.88263374	      9.42183630	     -2.79491794	    -11.17714451	      3.12776569	    -13.78250703	     -4.86092997	     10.40143822	     -4.58515824	      1.74533736	    -67.11175101	     -8.46864250	     -7.85228751	      4.06047059	     -8.52854904	      8.29299408	      2.43412235
      0.78983333	      7.19361249	     -4.02917318	      2.57134248	     -0.45816348	      1.01926042	      0.32128364	     -1.34057541	      9.30136538	     -2.73852382	    -10.91759206	      3.27020078	    -13.60432434	     -4.85150490	     10.95316514	     -4.39499909	      1.72869230	    -66.87080616	     -7.76682698	     -8.03719559	      4.00164138	     -8.56087560	      8.13009639	      2.59410916
      0.79400000	      7.16375828	     -3.90520460	      2.51012477	     -0.45316186	      1.01975388	      0.32162607	     -1.79656314	      9.19273190	     -2.66070416	    -10.61535275	      3.41151003	    -13.49958942	     -4.84631278	     11.51689693	     -4.20328678	      1.74511131	    -66.57556519	     -7.13162885	     -8.24755340	      3.98821437	     -8.54879109	      7.96901599	      2.66932445
      0.79816667	      7.20216630	     -3.78041815	      2.37815842	     -0.44820598	      1.02025257	      0.32204711	     -2.28772481	      9.07237213	     -2.58386129	    -10.39593058	      3.57029478	    -13.24523969	     -4.83645851	     11.97519205	     -4.04396616	      1.65912208	    -66.23314759	     -6.34775782	     -8.33978155	      3.88705387	     -8.65662885	      7.82730116	      2.98445906
      0.80233333	      7.15581907	     -3.65740247	      2.29435656	     -0.44323907	      1.02064612	      0.32240972	     -2.70507253	      8.96065214	     -2.49529979	    -10.12981741	      3.69029183	    -13.15816761	     -4.83272502	     12.52567990	     -3.86172314	      1.63941917	    -65.83750314	     -5.69232325	     -8.56963476	      3.87180733	     -8.63321899	      7.66114512	      3.04144155
      0.80650000	      7.16320584	     -3.53807334	      2.15245293	     -0.43830124	      1.02104786	      0.32283730	     -3.15822161	      8.84535765	     -2.37922227	     -9.91347800	      3.83848073	    -12.97663480	     -4.82933734	     12.98850026	     -3.71259871	      1.53851151	    -65.39182795	     -4.95363594	     -8.66488593	      3.75460781	     -8.71222230	      7.51416414	      3.33428543
      0.81066667	      7.12163504	     -3.42363755	      2.02148608	     -0.43336994	      1.02134812	      0.32324927	     -3.55434944	      8.73564979	     -2.26421348	     -9.69855267	      3.95332481	    -12.88085052	     -4.82877659	     13.49768312	     -3.56366752	      1.44893585	    -64.90247406	     -4.27573281	     -8.84714027	      3.69174785	     -8.71032237	      7.35926945	      3.44580216
      0.81483333	      7.08846204	     -3.31395178	      1.89912385	     -0.42843935	      1.02161251	      0.32364776	     -3.97103343	      8.63336315	     -2.12351794	     -9.45845704	      4.09610977	    -12.76680710	     -4.83376817	     13.98364364	     -3.41978771	      1.37334235	    -64.36496167	     -3.62068890	     -8.94412519	      3.55993701	     -8.72736665	      7.21787548	      3.68393620
      0.81900000	      7.02869434	     -3.20775904	      1.78202168	     -0.42353071	      1.02180212	      0.32401729	     -4.34564499	      8.53160156	     -1.99886435	     -9.23815851	      4.20031367	    -12.69437562	     -4.83424337	     14.48810734	     -3.27300649	      1.30540923	    -63.78470061	     -3.00658563	     -9.12213821	      3.52601449	     -8.71347809	      7.07656535	      3.74173743
      0.82316667	      6.99471294	     -3.09828454	      1.62410272	     -0.41860069	      1.02198895	      0.32444951	     -4.74452564	      8.42263198	     -1.84264415	     -9.03335818	      4.32035997	    -12.61676552	     -4.83948573	     14.93165850	     -3.15024350	      1.17168253	    -63.14201228	     -2.39924904	     -9.21922830	      3.45176715	     -8.71724854	      6.93025172	      3.90450918
      0.82733333	      6.94310831	     -3.00560724	      1.48829033	     -0.41369050	      1.02210321	      0.32484097	     -5.12940948	      8.33401576	     -1.68255901	     -8.80817290	      4.43423427	    -12.55629873	     -4.85066986	     15.39084566	     -3.03711783	      1.06937640	    -62.46712882	     -1.84105981	     -9.31529975	      3.34389440	     -8.71076086	      6.80075138	      4.09795347
      0.83150000	      6.87669779	     -2.92067784	      1.38383795	     -0.40879068	      1.02214754	      0.32517531	     -5.49927127	      8.25453809	     -1.54536256	     -8.57518943	      4.54174863	    -12.49417242	     -4.85434668	     15.86105754	     -2.91764207	      1.01109187	    -61.75685217	     -1.33845356	     -9.44083367	      3.30000973	     -8.69345769	      6.67760350	      4.17139894
      0.83566667	      6.83804743	     -2.82570475	      1.21646560	     -0.40388386	      1.02220812	      0.32558133	     -5.88772551	      8.15618965	     -1.35248018	     -8.37325413	      4.64217222	    -12.45612864	     -4.86756228	     16.25837169	     -2.81729656	      0.86618433	    -60.97200983	     -0.86037105	     -9.51404529	      3.20092226	     -8.69942536	      6.55574997	      4.34227082
      0.83983333	      6.78278142	     -2.73838257	      1.07834347	     -0.39897910	      1.02219492	      0.32594875	     -6.26431366	      8.06925485	     -1.17866807	     -8.15241145	      4.73840724	    -12.43439031	     -4.88511453	     16.66835379	     -2.71552369	      0.75615471	    -60.15545372	     -0.43899128	     -9.60838909	      3.08237645	     -8.68686018	      6.43233697	      4.50006736
      0.84400000	      6.70810163	     -2.66209776	      0.97799172	     -0.39407690	      1.02210125	      0.32624670	     -6.62563797	      7.99501418	     -1.04344100	     -7.91205585	      4.84369177	    -12.38761832	     -4.89255708	     17.09667998	     -2.61208830	      0.68956429	    -59.31161309	     -0.06191609	     -9.70367189	      3.02388821	     -8.65758196	      6.32389287	      4.57064384
      0.84816667	      6.67634462	     -2.57566439	      0.81669347	     -0.38917165	      1.02206322	      0.32661506	     -7.02074344	      7.90170374	     -0.83895065	     -7.70615623	      4.92720396	    -12.38204662	     -4.91299127	     17.43012077	     -2.52221912	      0.55116228	    -58.38348049	      0.25423748	     -9.79058546	      2.89707643	     -8.67304029	      6.20687461	      4.72448407
      0.85233333	      6.63129068	     -2.49858922	      0.69001385	     -0.38425840	      1.02194821	      0.32692753	     -7.41359648	      7.82163983	     -0.66194429	     -7.46972141	      5.01328494	    -12.39342099	     -4.94067262	     17.77293088	     -2.43271148	      0.44605108	    -57.42883102	      0.53182895	     -9.88914926	      2.73731871	     -8.66987555	      6.09512012	      4.86405739
      0.85650000	      6.57411892	     -2.43949706	      0.57689458	     -0.37935529	      1.02175618	      0.32721239	     -7.78832710	      7.76024299	     -0.49646573	     -7.24019989	      5.10475915	    -12.38503042	     -4.96334186	     18.12010074	     -2.35928278	      0.35921999	    -56.44657182	      0.78582374	     -9.96544499	      2.60653448	     -8.65849232	      6.01211629	      4.94670260
